G04 #@! TF.FileFunction,Legend,Bot*
%FSLAX46Y46*%
G04 Gerber Fmt 4.6, Leading zero omitted, Abs format (unit mm)*
G04 Created by KiCad (PCBNEW 4.0.1-stable) date 5/20/2016 3:53:06 PM*
%MOMM*%
G01*
G04 APERTURE LIST*
%ADD10C,0.100000*%
%ADD11C,0.187500*%
%ADD12C,0.300000*%
%ADD13C,0.150000*%
G04 APERTURE END LIST*
D10*
D11*
X149928572Y-119339286D02*
X149928572Y-118589286D01*
X149642857Y-118589286D01*
X149571429Y-118625000D01*
X149535714Y-118660714D01*
X149500000Y-118732143D01*
X149500000Y-118839286D01*
X149535714Y-118910714D01*
X149571429Y-118946429D01*
X149642857Y-118982143D01*
X149928572Y-118982143D01*
X148928572Y-118946429D02*
X148821429Y-118982143D01*
X148785714Y-119017857D01*
X148750000Y-119089286D01*
X148750000Y-119196429D01*
X148785714Y-119267857D01*
X148821429Y-119303571D01*
X148892857Y-119339286D01*
X149178572Y-119339286D01*
X149178572Y-118589286D01*
X148928572Y-118589286D01*
X148857143Y-118625000D01*
X148821429Y-118660714D01*
X148785714Y-118732143D01*
X148785714Y-118803571D01*
X148821429Y-118875000D01*
X148857143Y-118910714D01*
X148928572Y-118946429D01*
X149178572Y-118946429D01*
X148107143Y-118839286D02*
X148107143Y-119339286D01*
X148285714Y-118553571D02*
X148464286Y-119089286D01*
X148000000Y-119089286D01*
D12*
X132428571Y-106250001D02*
X132428571Y-107107144D01*
X133928571Y-106678573D02*
X132428571Y-106678573D01*
X133071429Y-107821430D02*
X133000000Y-107678572D01*
X132928571Y-107607144D01*
X132785714Y-107535715D01*
X132714286Y-107535715D01*
X132571429Y-107607144D01*
X132500000Y-107678572D01*
X132428571Y-107821430D01*
X132428571Y-108107144D01*
X132500000Y-108250001D01*
X132571429Y-108321430D01*
X132714286Y-108392858D01*
X132785714Y-108392858D01*
X132928571Y-108321430D01*
X133000000Y-108250001D01*
X133071429Y-108107144D01*
X133071429Y-107821430D01*
X133142857Y-107678572D01*
X133214286Y-107607144D01*
X133357143Y-107535715D01*
X133642857Y-107535715D01*
X133785714Y-107607144D01*
X133857143Y-107678572D01*
X133928571Y-107821430D01*
X133928571Y-108107144D01*
X133857143Y-108250001D01*
X133785714Y-108321430D01*
X133642857Y-108392858D01*
X133357143Y-108392858D01*
X133214286Y-108321430D01*
X133142857Y-108250001D01*
X133071429Y-108107144D01*
X132428571Y-109750001D02*
X132428571Y-109035715D01*
X133142857Y-108964286D01*
X133071429Y-109035715D01*
X133000000Y-109178572D01*
X133000000Y-109535715D01*
X133071429Y-109678572D01*
X133142857Y-109750001D01*
X133285714Y-109821429D01*
X133642857Y-109821429D01*
X133785714Y-109750001D01*
X133857143Y-109678572D01*
X133928571Y-109535715D01*
X133928571Y-109178572D01*
X133857143Y-109035715D01*
X133785714Y-108964286D01*
X132428571Y-111392857D02*
X132428571Y-112250000D01*
X133928571Y-111821429D02*
X132428571Y-111821429D01*
X133928571Y-113392857D02*
X133142857Y-113392857D01*
X133000000Y-113321428D01*
X132928571Y-113178571D01*
X132928571Y-112892857D01*
X133000000Y-112750000D01*
X133857143Y-113392857D02*
X133928571Y-113250000D01*
X133928571Y-112892857D01*
X133857143Y-112750000D01*
X133714286Y-112678571D01*
X133571429Y-112678571D01*
X133428571Y-112750000D01*
X133357143Y-112892857D01*
X133357143Y-113250000D01*
X133285714Y-113392857D01*
X133928571Y-114107143D02*
X132928571Y-114107143D01*
X133214286Y-114107143D02*
X133071429Y-114178571D01*
X133000000Y-114250000D01*
X132928571Y-114392857D01*
X132928571Y-114535714D01*
X132928571Y-115678571D02*
X134142857Y-115678571D01*
X134285714Y-115607142D01*
X134357143Y-115535714D01*
X134428571Y-115392857D01*
X134428571Y-115178571D01*
X134357143Y-115035714D01*
X133857143Y-115678571D02*
X133928571Y-115535714D01*
X133928571Y-115250000D01*
X133857143Y-115107142D01*
X133785714Y-115035714D01*
X133642857Y-114964285D01*
X133214286Y-114964285D01*
X133071429Y-115035714D01*
X133000000Y-115107142D01*
X132928571Y-115250000D01*
X132928571Y-115535714D01*
X133000000Y-115678571D01*
X133857143Y-116964285D02*
X133928571Y-116821428D01*
X133928571Y-116535714D01*
X133857143Y-116392857D01*
X133714286Y-116321428D01*
X133142857Y-116321428D01*
X133000000Y-116392857D01*
X132928571Y-116535714D01*
X132928571Y-116821428D01*
X133000000Y-116964285D01*
X133142857Y-117035714D01*
X133285714Y-117035714D01*
X133428571Y-116321428D01*
X132928571Y-117464285D02*
X132928571Y-118035714D01*
X132428571Y-117678571D02*
X133714286Y-117678571D01*
X133857143Y-117749999D01*
X133928571Y-117892857D01*
X133928571Y-118035714D01*
X133928571Y-120535714D02*
X133214286Y-120035714D01*
X133928571Y-119678571D02*
X132428571Y-119678571D01*
X132428571Y-120249999D01*
X132500000Y-120392857D01*
X132571429Y-120464285D01*
X132714286Y-120535714D01*
X132928571Y-120535714D01*
X133071429Y-120464285D01*
X133142857Y-120392857D01*
X133214286Y-120249999D01*
X133214286Y-119678571D01*
X132428571Y-121035714D02*
X132428571Y-121964285D01*
X133000000Y-121464285D01*
X133000000Y-121678571D01*
X133071429Y-121821428D01*
X133142857Y-121892857D01*
X133285714Y-121964285D01*
X133642857Y-121964285D01*
X133785714Y-121892857D01*
X133857143Y-121821428D01*
X133928571Y-121678571D01*
X133928571Y-121249999D01*
X133857143Y-121107142D01*
X133785714Y-121035714D01*
X133785714Y-122607142D02*
X133857143Y-122678570D01*
X133928571Y-122607142D01*
X133857143Y-122535713D01*
X133785714Y-122607142D01*
X133928571Y-122607142D01*
X133928571Y-124107142D02*
X133928571Y-123249999D01*
X133928571Y-123678571D02*
X132428571Y-123678571D01*
X132642857Y-123535714D01*
X132785714Y-123392856D01*
X132857143Y-123249999D01*
D11*
X149482143Y-122089286D02*
X149839286Y-122089286D01*
X149839286Y-121339286D01*
X149232143Y-121696429D02*
X148982143Y-121696429D01*
X148875000Y-122089286D02*
X149232143Y-122089286D01*
X149232143Y-121339286D01*
X148875000Y-121339286D01*
X148553572Y-122089286D02*
X148553572Y-121339286D01*
X148375000Y-121339286D01*
X148267857Y-121375000D01*
X148196429Y-121446429D01*
X148160714Y-121517857D01*
X148125000Y-121660714D01*
X148125000Y-121767857D01*
X148160714Y-121910714D01*
X148196429Y-121982143D01*
X148267857Y-122053571D01*
X148375000Y-122089286D01*
X148553572Y-122089286D01*
X149999999Y-116089286D02*
X149749999Y-116839286D01*
X149499999Y-116089286D01*
X148821428Y-116767857D02*
X148857142Y-116803571D01*
X148964285Y-116839286D01*
X149035714Y-116839286D01*
X149142857Y-116803571D01*
X149214285Y-116732143D01*
X149250000Y-116660714D01*
X149285714Y-116517857D01*
X149285714Y-116410714D01*
X149250000Y-116267857D01*
X149214285Y-116196429D01*
X149142857Y-116125000D01*
X149035714Y-116089286D01*
X148964285Y-116089286D01*
X148857142Y-116125000D01*
X148821428Y-116160714D01*
X148071428Y-116767857D02*
X148107142Y-116803571D01*
X148214285Y-116839286D01*
X148285714Y-116839286D01*
X148392857Y-116803571D01*
X148464285Y-116732143D01*
X148500000Y-116660714D01*
X148535714Y-116517857D01*
X148535714Y-116410714D01*
X148500000Y-116267857D01*
X148464285Y-116196429D01*
X148392857Y-116125000D01*
X148285714Y-116089286D01*
X148214285Y-116089286D01*
X148107142Y-116125000D01*
X148071428Y-116160714D01*
X149571428Y-113625000D02*
X149642857Y-113589286D01*
X149750000Y-113589286D01*
X149857143Y-113625000D01*
X149928571Y-113696429D01*
X149964286Y-113767857D01*
X150000000Y-113910714D01*
X150000000Y-114017857D01*
X149964286Y-114160714D01*
X149928571Y-114232143D01*
X149857143Y-114303571D01*
X149750000Y-114339286D01*
X149678571Y-114339286D01*
X149571428Y-114303571D01*
X149535714Y-114267857D01*
X149535714Y-114017857D01*
X149678571Y-114017857D01*
X149214286Y-114339286D02*
X149214286Y-113589286D01*
X148785714Y-114339286D01*
X148785714Y-113589286D01*
X148428572Y-114339286D02*
X148428572Y-113589286D01*
X148250000Y-113589286D01*
X148142857Y-113625000D01*
X148071429Y-113696429D01*
X148035714Y-113767857D01*
X148000000Y-113910714D01*
X148000000Y-114017857D01*
X148035714Y-114160714D01*
X148071429Y-114232143D01*
X148142857Y-114303571D01*
X148250000Y-114339286D01*
X148428572Y-114339286D01*
X149571428Y-109375000D02*
X149642857Y-109339286D01*
X149750000Y-109339286D01*
X149857143Y-109375000D01*
X149928571Y-109446429D01*
X149964286Y-109517857D01*
X150000000Y-109660714D01*
X150000000Y-109767857D01*
X149964286Y-109910714D01*
X149928571Y-109982143D01*
X149857143Y-110053571D01*
X149750000Y-110089286D01*
X149678571Y-110089286D01*
X149571428Y-110053571D01*
X149535714Y-110017857D01*
X149535714Y-109767857D01*
X149678571Y-109767857D01*
X149214286Y-110089286D02*
X149214286Y-109339286D01*
X148785714Y-110089286D01*
X148785714Y-109339286D01*
X148428572Y-110089286D02*
X148428572Y-109339286D01*
X148250000Y-109339286D01*
X148142857Y-109375000D01*
X148071429Y-109446429D01*
X148035714Y-109517857D01*
X148000000Y-109660714D01*
X148000000Y-109767857D01*
X148035714Y-109910714D01*
X148071429Y-109982143D01*
X148142857Y-110053571D01*
X148250000Y-110089286D01*
X148428572Y-110089286D01*
X149999999Y-106839286D02*
X149749999Y-107589286D01*
X149499999Y-106839286D01*
X148821428Y-107517857D02*
X148857142Y-107553571D01*
X148964285Y-107589286D01*
X149035714Y-107589286D01*
X149142857Y-107553571D01*
X149214285Y-107482143D01*
X149250000Y-107410714D01*
X149285714Y-107267857D01*
X149285714Y-107160714D01*
X149250000Y-107017857D01*
X149214285Y-106946429D01*
X149142857Y-106875000D01*
X149035714Y-106839286D01*
X148964285Y-106839286D01*
X148857142Y-106875000D01*
X148821428Y-106910714D01*
X148071428Y-107517857D02*
X148107142Y-107553571D01*
X148214285Y-107589286D01*
X148285714Y-107589286D01*
X148392857Y-107553571D01*
X148464285Y-107482143D01*
X148500000Y-107410714D01*
X148535714Y-107267857D01*
X148535714Y-107160714D01*
X148500000Y-107017857D01*
X148464285Y-106946429D01*
X148392857Y-106875000D01*
X148285714Y-106839286D01*
X148214285Y-106839286D01*
X148107142Y-106875000D01*
X148071428Y-106910714D01*
X127339286Y-100875000D02*
X126982143Y-100625000D01*
X127339286Y-100446428D02*
X126589286Y-100446428D01*
X126589286Y-100732143D01*
X126625000Y-100803571D01*
X126660714Y-100839286D01*
X126732143Y-100875000D01*
X126839286Y-100875000D01*
X126910714Y-100839286D01*
X126946429Y-100803571D01*
X126982143Y-100732143D01*
X126982143Y-100446428D01*
X127339286Y-101589286D02*
X127339286Y-101160714D01*
X127339286Y-101375000D02*
X126589286Y-101375000D01*
X126696429Y-101303571D01*
X126767857Y-101232143D01*
X126803571Y-101160714D01*
X127339286Y-104375000D02*
X126982143Y-104125000D01*
X127339286Y-103946428D02*
X126589286Y-103946428D01*
X126589286Y-104232143D01*
X126625000Y-104303571D01*
X126660714Y-104339286D01*
X126732143Y-104375000D01*
X126839286Y-104375000D01*
X126910714Y-104339286D01*
X126946429Y-104303571D01*
X126982143Y-104232143D01*
X126982143Y-103946428D01*
X126660714Y-104660714D02*
X126625000Y-104696428D01*
X126589286Y-104767857D01*
X126589286Y-104946428D01*
X126625000Y-105017857D01*
X126660714Y-105053571D01*
X126732143Y-105089286D01*
X126803571Y-105089286D01*
X126910714Y-105053571D01*
X127339286Y-104625000D01*
X127339286Y-105089286D01*
D13*
X132000000Y-99925000D02*
X130000000Y-99925000D01*
X130000000Y-102075000D02*
X132000000Y-102075000D01*
X132000000Y-103425000D02*
X130000000Y-103425000D01*
X130000000Y-105575000D02*
X132000000Y-105575000D01*
M02*
