M48
;DRILL file {KiCad 4.0.1-stable} date 5/20/2016 3:53:04 PM
;FORMAT={-:-/ absolute / inch / decimal}
FMAT,2
INCH,TZ
T1C0.025
T2C0.031
T3C0.039
T4C0.040
%
G90
G05
M72
T1
X4.995Y-4.06
X5.15Y-4.58
X5.155Y-4.75
X5.165Y-3.975
X5.165Y-4.11
X5.19Y-3.895
X5.2Y-4.585
X5.235Y-4.83
X5.295Y-4.455
X5.4Y-4.35
X5.49Y-4.38
X5.555Y-4.265
X5.635Y-4.195
X5.795Y-4.67
X5.81Y-4.185
T2
X5.0591Y-4.4882
X5.0591Y-4.5882
X5.0591Y-4.6882
X5.0591Y-4.7882
X5.3591Y-4.4882
X5.3591Y-4.5882
X5.3591Y-4.6882
X5.3591Y-4.7882
T3
X5.9449Y-3.9567
X5.9449Y-4.0567
T4
X5.3937Y-3.9945
X5.3937Y-4.0945
X5.4937Y-3.9945
X5.4937Y-4.0945
X5.5906Y-4.3701
X5.5906Y-4.4701
X5.5906Y-4.5701
X5.5906Y-4.6701
X5.5906Y-4.7701
X5.5937Y-3.9945
X5.5937Y-4.0945
X5.6906Y-4.3701
X5.6906Y-4.4701
X5.6906Y-4.5701
X5.6906Y-4.6701
X5.6906Y-4.7701
X5.6937Y-3.9945
X5.6937Y-4.0945
X5.9843Y-4.2224
X5.9843Y-4.3224
X5.9843Y-4.4882
X5.9843Y-4.5882
X5.9843Y-4.6882
X5.9843Y-4.7882
T0
M30
