G04 #@! TF.FileFunction,Legend,Top*
%FSLAX46Y46*%
G04 Gerber Fmt 4.6, Leading zero omitted, Abs format (unit mm)*
G04 Created by KiCad (PCBNEW 4.0.1-stable) date 5/20/2016 3:53:06 PM*
%MOMM*%
G01*
G04 APERTURE LIST*
%ADD10C,0.100000*%
%ADD11C,0.300000*%
%ADD12C,0.187500*%
%ADD13C,0.150000*%
G04 APERTURE END LIST*
D10*
D11*
X134178571Y-104071429D02*
X132678571Y-104071429D01*
X132607143Y-102285715D02*
X134535714Y-103571429D01*
X132678571Y-101500000D02*
X132678571Y-101214286D01*
X132750000Y-101071428D01*
X132892857Y-100928571D01*
X133178571Y-100857143D01*
X133678571Y-100857143D01*
X133964286Y-100928571D01*
X134107143Y-101071428D01*
X134178571Y-101214286D01*
X134178571Y-101500000D01*
X134107143Y-101642857D01*
X133964286Y-101785714D01*
X133678571Y-101857143D01*
X133178571Y-101857143D01*
X132892857Y-101785714D01*
X132750000Y-101642857D01*
X132678571Y-101500000D01*
D12*
X153089286Y-102303572D02*
X152339286Y-102303572D01*
X152339286Y-102125000D01*
X152375000Y-102017857D01*
X152446429Y-101946429D01*
X152517857Y-101910714D01*
X152660714Y-101875000D01*
X152767857Y-101875000D01*
X152910714Y-101910714D01*
X152982143Y-101946429D01*
X153053571Y-102017857D01*
X153089286Y-102125000D01*
X153089286Y-102303572D01*
X153089286Y-101160714D02*
X153089286Y-101589286D01*
X153089286Y-101375000D02*
X152339286Y-101375000D01*
X152446429Y-101446429D01*
X152517857Y-101517857D01*
X152553571Y-101589286D01*
X144839286Y-98928571D02*
X144875000Y-98857143D01*
X144910714Y-98821428D01*
X144982143Y-98785714D01*
X145017857Y-98785714D01*
X145089286Y-98821428D01*
X145125000Y-98857143D01*
X145160714Y-98928571D01*
X145160714Y-99071428D01*
X145125000Y-99142857D01*
X145089286Y-99178571D01*
X145017857Y-99214286D01*
X144982143Y-99214286D01*
X144910714Y-99178571D01*
X144875000Y-99142857D01*
X144839286Y-99071428D01*
X144839286Y-98928571D01*
X144803571Y-98857143D01*
X144767857Y-98821428D01*
X144696429Y-98785714D01*
X144553571Y-98785714D01*
X144482143Y-98821428D01*
X144446429Y-98857143D01*
X144410714Y-98928571D01*
X144410714Y-99071428D01*
X144446429Y-99142857D01*
X144482143Y-99178571D01*
X144553571Y-99214286D01*
X144696429Y-99214286D01*
X144767857Y-99178571D01*
X144803571Y-99142857D01*
X144839286Y-99071428D01*
X137589286Y-106285714D02*
X137589286Y-106714286D01*
X137589286Y-106500000D02*
X136839286Y-106500000D01*
X136946429Y-106571429D01*
X137017857Y-106642857D01*
X137053571Y-106714286D01*
X140339286Y-117928571D02*
X139589286Y-117928571D01*
X140339286Y-117499999D01*
X139589286Y-117499999D01*
X140339286Y-117035714D02*
X140303571Y-117107142D01*
X140267857Y-117142857D01*
X140196429Y-117178571D01*
X139982143Y-117178571D01*
X139910714Y-117142857D01*
X139875000Y-117107142D01*
X139839286Y-117035714D01*
X139839286Y-116928571D01*
X139875000Y-116857142D01*
X139910714Y-116821428D01*
X139982143Y-116785714D01*
X140196429Y-116785714D01*
X140267857Y-116821428D01*
X140303571Y-116857142D01*
X140339286Y-116928571D01*
X140339286Y-117035714D01*
X139839286Y-116571428D02*
X139839286Y-116285714D01*
X139589286Y-116464286D02*
X140232143Y-116464286D01*
X140303571Y-116428571D01*
X140339286Y-116357143D01*
X140339286Y-116285714D01*
X140303571Y-115714286D02*
X140339286Y-115785715D01*
X140339286Y-115928572D01*
X140303571Y-116000000D01*
X140267857Y-116035715D01*
X140196429Y-116071429D01*
X139982143Y-116071429D01*
X139910714Y-116035715D01*
X139875000Y-116000000D01*
X139839286Y-115928572D01*
X139839286Y-115785715D01*
X139875000Y-115714286D01*
X140339286Y-115392858D02*
X139589286Y-115392858D01*
X140339286Y-115071429D02*
X139946429Y-115071429D01*
X139875000Y-115107143D01*
X139839286Y-115178572D01*
X139839286Y-115285715D01*
X139875000Y-115357143D01*
X139910714Y-115392858D01*
D11*
X140321429Y-120785714D02*
X140107143Y-120500000D01*
X140321429Y-120214285D01*
X140321429Y-113285714D02*
X140107143Y-113000000D01*
X140321429Y-112714285D01*
D12*
X127267857Y-108125000D02*
X127303571Y-108160714D01*
X127339286Y-108267857D01*
X127339286Y-108339286D01*
X127303571Y-108446429D01*
X127232143Y-108517857D01*
X127160714Y-108553572D01*
X127017857Y-108589286D01*
X126910714Y-108589286D01*
X126767857Y-108553572D01*
X126696429Y-108517857D01*
X126625000Y-108446429D01*
X126589286Y-108339286D01*
X126589286Y-108267857D01*
X126625000Y-108160714D01*
X126660714Y-108125000D01*
X127339286Y-107410714D02*
X127339286Y-107839286D01*
X127339286Y-107625000D02*
X126589286Y-107625000D01*
X126696429Y-107696429D01*
X126767857Y-107767857D01*
X126803571Y-107839286D01*
X132625000Y-119357143D02*
X132625000Y-119000000D01*
X132839286Y-119428571D02*
X132089286Y-119178571D01*
X132839286Y-118928571D01*
X132089286Y-118785714D02*
X132089286Y-118357143D01*
X132839286Y-118571429D02*
X132089286Y-118571429D01*
X132089286Y-118214285D02*
X132089286Y-117785714D01*
X132839286Y-118000000D02*
X132089286Y-118000000D01*
X132839286Y-117535714D02*
X132089286Y-117535714D01*
X132839286Y-117178571D02*
X132089286Y-117178571D01*
X132839286Y-116749999D01*
X132089286Y-116749999D01*
X132482143Y-116249999D02*
X132839286Y-116249999D01*
X132089286Y-116499999D02*
X132482143Y-116249999D01*
X132089286Y-115999999D01*
X132410714Y-115642857D02*
X132375000Y-115714285D01*
X132339286Y-115750000D01*
X132267857Y-115785714D01*
X132232143Y-115785714D01*
X132160714Y-115750000D01*
X132125000Y-115714285D01*
X132089286Y-115642857D01*
X132089286Y-115500000D01*
X132125000Y-115428571D01*
X132160714Y-115392857D01*
X132232143Y-115357142D01*
X132267857Y-115357142D01*
X132339286Y-115392857D01*
X132375000Y-115428571D01*
X132410714Y-115500000D01*
X132410714Y-115642857D01*
X132446429Y-115714285D01*
X132482143Y-115750000D01*
X132553571Y-115785714D01*
X132696429Y-115785714D01*
X132767857Y-115750000D01*
X132803571Y-115714285D01*
X132839286Y-115642857D01*
X132839286Y-115500000D01*
X132803571Y-115428571D01*
X132767857Y-115392857D01*
X132696429Y-115357142D01*
X132553571Y-115357142D01*
X132482143Y-115392857D01*
X132446429Y-115428571D01*
X132410714Y-115500000D01*
X132089286Y-114678571D02*
X132089286Y-115035714D01*
X132446429Y-115071428D01*
X132410714Y-115035714D01*
X132375000Y-114964285D01*
X132375000Y-114785714D01*
X132410714Y-114714285D01*
X132446429Y-114678571D01*
X132517857Y-114642856D01*
X132696429Y-114642856D01*
X132767857Y-114678571D01*
X132803571Y-114714285D01*
X132839286Y-114785714D01*
X132839286Y-114964285D01*
X132803571Y-115035714D01*
X132767857Y-115071428D01*
X147339286Y-121392857D02*
X147339286Y-121821429D01*
X147339286Y-121607143D02*
X146589286Y-121607143D01*
X146696429Y-121678572D01*
X146767857Y-121750000D01*
X146803571Y-121821429D01*
X146589286Y-120928571D02*
X146589286Y-120857143D01*
X146625000Y-120785714D01*
X146660714Y-120750000D01*
X146732143Y-120714286D01*
X146875000Y-120678571D01*
X147053571Y-120678571D01*
X147196429Y-120714286D01*
X147267857Y-120750000D01*
X147303571Y-120785714D01*
X147339286Y-120857143D01*
X147339286Y-120928571D01*
X147303571Y-121000000D01*
X147267857Y-121035714D01*
X147196429Y-121071429D01*
X147053571Y-121107143D01*
X146875000Y-121107143D01*
X146732143Y-121071429D01*
X146660714Y-121035714D01*
X146625000Y-121000000D01*
X146589286Y-120928571D01*
X140214286Y-111339286D02*
X139785714Y-111339286D01*
X140000000Y-111339286D02*
X140000000Y-110589286D01*
X139928571Y-110696429D01*
X139857143Y-110767857D01*
X139785714Y-110803571D01*
X147339286Y-117107143D02*
X146589286Y-117107143D01*
X147267857Y-116321428D02*
X147303571Y-116357142D01*
X147339286Y-116464285D01*
X147339286Y-116535714D01*
X147303571Y-116642857D01*
X147232143Y-116714285D01*
X147160714Y-116750000D01*
X147017857Y-116785714D01*
X146910714Y-116785714D01*
X146767857Y-116750000D01*
X146696429Y-116714285D01*
X146625000Y-116642857D01*
X146589286Y-116535714D01*
X146589286Y-116464285D01*
X146625000Y-116357142D01*
X146660714Y-116321428D01*
X147303571Y-116035714D02*
X147339286Y-115928571D01*
X147339286Y-115750000D01*
X147303571Y-115678571D01*
X147267857Y-115642857D01*
X147196429Y-115607142D01*
X147125000Y-115607142D01*
X147053571Y-115642857D01*
X147017857Y-115678571D01*
X146982143Y-115750000D01*
X146946429Y-115892857D01*
X146910714Y-115964285D01*
X146875000Y-116000000D01*
X146803571Y-116035714D01*
X146732143Y-116035714D01*
X146660714Y-116000000D01*
X146625000Y-115964285D01*
X146589286Y-115892857D01*
X146589286Y-115714285D01*
X146625000Y-115607142D01*
X147339286Y-115285714D02*
X146589286Y-115285714D01*
X146589286Y-114999999D01*
X146625000Y-114928571D01*
X146660714Y-114892856D01*
X146732143Y-114857142D01*
X146839286Y-114857142D01*
X146910714Y-114892856D01*
X146946429Y-114928571D01*
X146982143Y-114999999D01*
X146982143Y-115285714D01*
D13*
X138270000Y-105270000D02*
X145890000Y-105270000D01*
X145890000Y-105270000D02*
X145890000Y-100190000D01*
X145890000Y-100190000D02*
X135730000Y-100190000D01*
X135730000Y-100190000D02*
X135730000Y-102730000D01*
X135450000Y-104000000D02*
X135450000Y-105550000D01*
X135730000Y-102730000D02*
X138270000Y-102730000D01*
X138270000Y-102730000D02*
X138270000Y-105270000D01*
X135450000Y-105550000D02*
X137000000Y-105550000D01*
X145810000Y-109730000D02*
X145810000Y-122430000D01*
X145810000Y-122430000D02*
X140730000Y-122430000D01*
X140730000Y-122430000D02*
X140730000Y-112270000D01*
X145810000Y-109730000D02*
X143270000Y-109730000D01*
X142000000Y-109450000D02*
X140450000Y-109450000D01*
X143270000Y-109730000D02*
X143270000Y-112270000D01*
X143270000Y-112270000D02*
X140730000Y-112270000D01*
X140450000Y-109450000D02*
X140450000Y-111000000D01*
X130000000Y-109025000D02*
X132000000Y-109025000D01*
X132000000Y-106975000D02*
X130000000Y-106975000D01*
X149475096Y-99285112D02*
G75*
G03X152500000Y-99270000I1524904J-2484888D01*
G01*
X149500000Y-99270000D02*
X152500000Y-99270000D01*
X153517936Y-101770000D02*
G75*
G03X153517936Y-101770000I-2517936J0D01*
G01*
X128635000Y-111705000D02*
X128635000Y-112975000D01*
X135985000Y-111705000D02*
X135985000Y-112975000D01*
X135985000Y-123915000D02*
X135985000Y-122645000D01*
X128635000Y-123915000D02*
X128635000Y-122645000D01*
X128635000Y-111705000D02*
X135985000Y-111705000D01*
X128635000Y-123915000D02*
X135985000Y-123915000D01*
X128635000Y-112975000D02*
X127700000Y-112975000D01*
X150730000Y-115270000D02*
X150730000Y-122890000D01*
X153270000Y-115270000D02*
X153270000Y-122890000D01*
X153550000Y-112450000D02*
X153550000Y-114000000D01*
X150730000Y-122890000D02*
X153270000Y-122890000D01*
X153270000Y-115270000D02*
X150730000Y-115270000D01*
X150450000Y-114000000D02*
X150450000Y-112450000D01*
X150450000Y-112450000D02*
X153550000Y-112450000D01*
X153270000Y-108520000D02*
X153270000Y-111060000D01*
X153550000Y-105700000D02*
X153550000Y-107250000D01*
X153270000Y-108520000D02*
X150730000Y-108520000D01*
X150450000Y-107250000D02*
X150450000Y-105700000D01*
X150450000Y-105700000D02*
X153550000Y-105700000D01*
X150730000Y-108520000D02*
X150730000Y-111060000D01*
X150730000Y-111060000D02*
X153270000Y-111060000D01*
M02*
