G04 #@! TF.FileFunction,Copper,L2,Bot,Signal*
%FSLAX46Y46*%
G04 Gerber Fmt 4.6, Leading zero omitted, Abs format (unit mm)*
G04 Created by KiCad (PCBNEW 4.0.1-stable) date 5/20/2016 3:53:06 PM*
%MOMM*%
G01*
G04 APERTURE LIST*
%ADD10C,0.100000*%
%ADD11R,1.727200X1.727200*%
%ADD12O,1.727200X1.727200*%
%ADD13R,2.000000X1.900000*%
%ADD14C,1.900000*%
%ADD15O,1.600000X1.600000*%
%ADD16R,2.032000X1.727200*%
%ADD17O,2.032000X1.727200*%
%ADD18R,2.032000X2.032000*%
%ADD19O,2.032000X2.032000*%
%ADD20R,2.000000X1.700000*%
%ADD21C,0.889000*%
%ADD22C,0.400000*%
G04 APERTURE END LIST*
D10*
D11*
X137000000Y-104000000D03*
D12*
X137000000Y-101460000D03*
X139540000Y-104000000D03*
X139540000Y-101460000D03*
X142080000Y-104000000D03*
X142080000Y-101460000D03*
X144620000Y-104000000D03*
X144620000Y-101460000D03*
D11*
X142000000Y-111000000D03*
D12*
X144540000Y-111000000D03*
X142000000Y-113540000D03*
X144540000Y-113540000D03*
X142000000Y-116080000D03*
X144540000Y-116080000D03*
X142000000Y-118620000D03*
X144540000Y-118620000D03*
X142000000Y-121160000D03*
X144540000Y-121160000D03*
D13*
X151000000Y-100500000D03*
D14*
X151000000Y-103040000D03*
D15*
X128500000Y-114000000D03*
X128500000Y-116540000D03*
X128500000Y-119080000D03*
X128500000Y-121620000D03*
X136120000Y-121620000D03*
X136120000Y-119080000D03*
X136120000Y-116540000D03*
X136120000Y-114000000D03*
D16*
X152000000Y-114000000D03*
D17*
X152000000Y-116540000D03*
X152000000Y-119080000D03*
X152000000Y-121620000D03*
D18*
X152000000Y-107250000D03*
D19*
X152000000Y-109790000D03*
D20*
X129000000Y-101000000D03*
X133000000Y-101000000D03*
X129000000Y-104500000D03*
X133000000Y-104500000D03*
D21*
X131191000Y-104394000D03*
X131191000Y-100965000D03*
X126873000Y-103124000D03*
X130810000Y-116332000D03*
X131826000Y-98933000D03*
X132080000Y-116459000D03*
X134493000Y-113157000D03*
X137160000Y-110490000D03*
X130937000Y-120650000D03*
X132969000Y-122682000D03*
X139446000Y-111252000D03*
X147193000Y-118618000D03*
X141097000Y-108331000D03*
X143129000Y-106553000D03*
X147574000Y-106299000D03*
D22*
X144540000Y-111000000D02*
X144526000Y-110998000D01*
X144526000Y-110998000D02*
X148336000Y-107188000D01*
X148336000Y-107188000D02*
X152019000Y-107188000D01*
X152019000Y-107188000D02*
X152000000Y-107250000D01*
X136120000Y-114000000D02*
X136144000Y-114046000D01*
X136144000Y-114046000D02*
X137922000Y-112268000D01*
X137922000Y-112268000D02*
X143383000Y-112268000D01*
X143383000Y-112268000D02*
X143383000Y-112141000D01*
X143383000Y-112141000D02*
X144526000Y-110998000D01*
X144526000Y-110998000D02*
X144540000Y-111000000D01*
X131191000Y-104394000D02*
X131191000Y-102743000D01*
X131191000Y-102743000D02*
X132969000Y-100965000D01*
X132969000Y-100965000D02*
X133000000Y-101000000D01*
X133000000Y-101000000D02*
X132969000Y-100965000D01*
X132969000Y-100965000D02*
X133000000Y-101000000D01*
X152000000Y-114000000D02*
X152019000Y-114046000D01*
X152019000Y-114046000D02*
X150876000Y-115189000D01*
X150876000Y-115189000D02*
X150495000Y-115189000D01*
X150495000Y-115189000D02*
X147955000Y-117729000D01*
X147955000Y-117729000D02*
X146812000Y-117729000D01*
X146812000Y-117729000D02*
X146685000Y-117856000D01*
X146685000Y-117856000D02*
X146558000Y-117856000D01*
X146558000Y-117856000D02*
X145796000Y-118618000D01*
X145796000Y-118618000D02*
X144526000Y-118618000D01*
X144526000Y-118618000D02*
X144540000Y-118620000D01*
X144540000Y-121160000D02*
X144526000Y-121158000D01*
X144526000Y-121158000D02*
X144526000Y-121285000D01*
X144526000Y-121285000D02*
X142875000Y-122936000D01*
X142875000Y-122936000D02*
X134874000Y-122936000D01*
X134874000Y-122936000D02*
X133604000Y-121666000D01*
X133604000Y-121666000D02*
X128524000Y-121666000D01*
X128524000Y-121666000D02*
X128500000Y-121620000D01*
X151000000Y-100500000D02*
X151003000Y-100457000D01*
X151003000Y-100457000D02*
X150622000Y-100076000D01*
X150622000Y-100076000D02*
X140716000Y-100076000D01*
X140716000Y-100076000D02*
X140716000Y-100330000D01*
X140716000Y-100330000D02*
X139573000Y-101473000D01*
X139573000Y-101473000D02*
X139540000Y-101460000D01*
X151000000Y-103040000D02*
X151003000Y-102997000D01*
X151003000Y-102997000D02*
X148717000Y-105283000D01*
X148717000Y-105283000D02*
X135636000Y-105283000D01*
X135636000Y-105283000D02*
X134874000Y-104521000D01*
X134874000Y-104521000D02*
X132969000Y-104521000D01*
X132969000Y-104521000D02*
X133000000Y-104500000D01*
X128500000Y-114000000D02*
X128524000Y-114046000D01*
X128524000Y-114046000D02*
X129794000Y-115316000D01*
X129794000Y-115316000D02*
X137414000Y-115316000D01*
X137414000Y-115316000D02*
X137922000Y-115824000D01*
X137922000Y-115824000D02*
X140208000Y-115824000D01*
X140208000Y-115824000D02*
X140462000Y-116078000D01*
X140462000Y-116078000D02*
X141986000Y-116078000D01*
X141986000Y-116078000D02*
X142000000Y-116080000D01*
X129000000Y-101000000D02*
X129032000Y-100965000D01*
X129032000Y-100965000D02*
X131191000Y-100965000D01*
X129000000Y-101000000D02*
X129032000Y-100965000D01*
X129032000Y-100965000D02*
X126873000Y-103124000D01*
X128500000Y-116540000D02*
X128524000Y-116586000D01*
X128524000Y-116586000D02*
X128778000Y-116332000D01*
X128778000Y-116332000D02*
X130810000Y-116332000D01*
X131826000Y-98933000D02*
X132588000Y-99695000D01*
X132588000Y-99695000D02*
X134493000Y-99695000D01*
X134493000Y-99695000D02*
X136271000Y-101473000D01*
X136271000Y-101473000D02*
X137033000Y-101473000D01*
X137033000Y-101473000D02*
X137000000Y-101460000D01*
X128500000Y-119080000D02*
X128524000Y-119126000D01*
X128524000Y-119126000D02*
X130429000Y-117221000D01*
X130429000Y-117221000D02*
X131191000Y-117221000D01*
X131191000Y-117221000D02*
X131318000Y-117094000D01*
X131318000Y-117094000D02*
X131445000Y-117094000D01*
X131445000Y-117094000D02*
X132080000Y-116459000D01*
X134493000Y-113157000D02*
X137160000Y-110490000D01*
X128500000Y-119080000D02*
X128524000Y-119126000D01*
X128524000Y-119126000D02*
X130048000Y-120650000D01*
X130048000Y-120650000D02*
X130937000Y-120650000D01*
X132969000Y-122682000D02*
X133985000Y-123698000D01*
X133985000Y-123698000D02*
X143129000Y-123698000D01*
X143129000Y-123698000D02*
X144399000Y-122428000D01*
X144399000Y-122428000D02*
X145923000Y-122428000D01*
X145923000Y-122428000D02*
X149225000Y-119126000D01*
X149225000Y-119126000D02*
X152019000Y-119126000D01*
X152019000Y-119126000D02*
X152000000Y-119080000D01*
X142000000Y-111000000D02*
X141986000Y-110998000D01*
X141986000Y-110998000D02*
X141732000Y-111252000D01*
X141732000Y-111252000D02*
X139446000Y-111252000D01*
X142000000Y-121160000D02*
X141986000Y-121158000D01*
X141986000Y-121158000D02*
X143256000Y-119888000D01*
X143256000Y-119888000D02*
X145923000Y-119888000D01*
X145923000Y-119888000D02*
X147193000Y-118618000D01*
X136120000Y-119080000D02*
X136144000Y-119126000D01*
X136144000Y-119126000D02*
X138176000Y-121158000D01*
X138176000Y-121158000D02*
X141986000Y-121158000D01*
X141986000Y-121158000D02*
X142000000Y-121160000D01*
X141097000Y-108331000D02*
X142875000Y-106553000D01*
X142875000Y-106553000D02*
X143129000Y-106553000D01*
X142000000Y-118620000D02*
X141986000Y-118618000D01*
X141986000Y-118618000D02*
X139954000Y-116586000D01*
X139954000Y-116586000D02*
X136144000Y-116586000D01*
X136144000Y-116586000D02*
X136120000Y-116540000D01*
X147574000Y-106299000D02*
X144653000Y-109220000D01*
X144653000Y-109220000D02*
X140716000Y-109220000D01*
X140716000Y-109220000D02*
X140589000Y-109093000D01*
X140589000Y-109093000D02*
X140462000Y-109093000D01*
X140462000Y-109093000D02*
X137414000Y-106045000D01*
X137414000Y-106045000D02*
X135382000Y-106045000D01*
X135382000Y-106045000D02*
X135128000Y-105791000D01*
X135128000Y-105791000D02*
X131572000Y-105791000D01*
X131572000Y-105791000D02*
X131064000Y-105283000D01*
X131064000Y-105283000D02*
X130810000Y-105283000D01*
X130810000Y-105283000D02*
X130683000Y-105156000D01*
X130683000Y-105156000D02*
X130556000Y-105156000D01*
X130556000Y-105156000D02*
X129921000Y-104521000D01*
X129921000Y-104521000D02*
X129032000Y-104521000D01*
X129032000Y-104521000D02*
X129000000Y-104500000D01*
M02*
