G04 #@! TF.FileFunction,Copper,L1,Top,Signal*
%FSLAX46Y46*%
G04 Gerber Fmt 4.6, Leading zero omitted, Abs format (unit mm)*
G04 Created by KiCad (PCBNEW 4.0.1-stable) date 2/3/2016 5:41:03 PM*
%MOMM*%
G01*
G04 APERTURE LIST*
%ADD10C,0.100000*%
%ADD11R,2.000000X1.600000*%
%ADD12R,2.000000X1.900000*%
%ADD13C,1.900000*%
%ADD14O,1.600000X1.600000*%
%ADD15R,1.727200X1.727200*%
%ADD16O,1.727200X1.727200*%
%ADD17R,2.032000X1.727200*%
%ADD18O,2.032000X1.727200*%
%ADD19R,2.032000X2.032000*%
%ADD20O,2.032000X2.032000*%
%ADD21C,0.889000*%
%ADD22C,0.400000*%
G04 APERTURE END LIST*
D10*
D11*
X133000000Y-108000000D03*
X129000000Y-108000000D03*
D12*
X151000000Y-100500000D03*
D13*
X151000000Y-103040000D03*
D14*
X128000000Y-113000000D03*
X128000000Y-115540000D03*
X128000000Y-118080000D03*
X128000000Y-120620000D03*
X135620000Y-120620000D03*
X135620000Y-118080000D03*
X135620000Y-115540000D03*
X135620000Y-113000000D03*
D15*
X142500000Y-111000000D03*
D16*
X145040000Y-111000000D03*
X142500000Y-113540000D03*
X145040000Y-113540000D03*
X142500000Y-116080000D03*
X145040000Y-116080000D03*
X142500000Y-118620000D03*
X145040000Y-118620000D03*
X142500000Y-121160000D03*
X145040000Y-121160000D03*
D15*
X137000000Y-104000000D03*
D16*
X137000000Y-101460000D03*
X139540000Y-104000000D03*
X139540000Y-101460000D03*
X142080000Y-104000000D03*
X142080000Y-101460000D03*
X144620000Y-104000000D03*
X144620000Y-101460000D03*
D17*
X152000000Y-113500000D03*
D18*
X152000000Y-116040000D03*
X152000000Y-118580000D03*
X152000000Y-121120000D03*
D19*
X152000000Y-107500000D03*
D20*
X152000000Y-110040000D03*
D21*
X130937000Y-101092000D03*
X131572000Y-98933000D03*
X148970000Y-101090000D03*
X131270000Y-104500000D03*
X138811000Y-112649000D03*
X135255000Y-108331000D03*
X137160000Y-106680000D03*
X136398000Y-109474000D03*
X137541000Y-112776000D03*
X147320000Y-104140000D03*
X140970000Y-108331000D03*
X138938000Y-116967000D03*
X140716000Y-107061000D03*
X136271000Y-123952000D03*
X131064000Y-107950000D03*
D22*
X133000000Y-108000000D02*
X132969000Y-107950000D01*
X132969000Y-107950000D02*
X130048000Y-105029000D01*
X130048000Y-105029000D02*
X130048000Y-104267000D01*
X130048000Y-104267000D02*
X130175000Y-104140000D01*
X130175000Y-104140000D02*
X130175000Y-104013000D01*
X130175000Y-104013000D02*
X130302000Y-103886000D01*
X130302000Y-103886000D02*
X130302000Y-103759000D01*
X130302000Y-103759000D02*
X130937000Y-103124000D01*
X130937000Y-103124000D02*
X130937000Y-101092000D01*
X133000000Y-108000000D02*
X132969000Y-107950000D01*
X132969000Y-107950000D02*
X135636000Y-110617000D01*
X135636000Y-110617000D02*
X135636000Y-113030000D01*
X135636000Y-113030000D02*
X135620000Y-113000000D01*
X145040000Y-111000000D02*
X145034000Y-110998000D01*
X145034000Y-110998000D02*
X146050000Y-109982000D01*
X146050000Y-109982000D02*
X146050000Y-102616000D01*
X146050000Y-102616000D02*
X145796000Y-102616000D01*
X145796000Y-102616000D02*
X144653000Y-101473000D01*
X144653000Y-101473000D02*
X144620000Y-101460000D01*
X152000000Y-113500000D02*
X152019000Y-113538000D01*
X152019000Y-113538000D02*
X153543000Y-112014000D01*
X153543000Y-112014000D02*
X153543000Y-108458000D01*
X153543000Y-108458000D02*
X153035000Y-108458000D01*
X153035000Y-108458000D02*
X152019000Y-107442000D01*
X152019000Y-107442000D02*
X152000000Y-107500000D01*
X131572000Y-98933000D02*
X129032000Y-101473000D01*
X129032000Y-101473000D02*
X129032000Y-107950000D01*
X129032000Y-107950000D02*
X129000000Y-108000000D01*
X129000000Y-108000000D02*
X129032000Y-107950000D01*
X129032000Y-107950000D02*
X129286000Y-108204000D01*
X129286000Y-108204000D02*
X129286000Y-119380000D01*
X129286000Y-119380000D02*
X128016000Y-120650000D01*
X128016000Y-120650000D02*
X128000000Y-120620000D01*
X152000000Y-110040000D02*
X152019000Y-109982000D01*
X152019000Y-109982000D02*
X151384000Y-109982000D01*
X151384000Y-109982000D02*
X149479000Y-108077000D01*
X149479000Y-108077000D02*
X149479000Y-102870000D01*
X149479000Y-102870000D02*
X149606000Y-102743000D01*
X149606000Y-102743000D02*
X149606000Y-102362000D01*
X149606000Y-102362000D02*
X149733000Y-102235000D01*
X149733000Y-102235000D02*
X149733000Y-102108000D01*
X149733000Y-102108000D02*
X151003000Y-100838000D01*
X151003000Y-100838000D02*
X151003000Y-100457000D01*
X151003000Y-100457000D02*
X151000000Y-100500000D01*
X152000000Y-116040000D02*
X152019000Y-116078000D01*
X152019000Y-116078000D02*
X151765000Y-116078000D01*
X151765000Y-116078000D02*
X150622000Y-114935000D01*
X150622000Y-114935000D02*
X150495000Y-114935000D01*
X150495000Y-114935000D02*
X150495000Y-112141000D01*
X150495000Y-112141000D02*
X152019000Y-110617000D01*
X152019000Y-110617000D02*
X152019000Y-109982000D01*
X152019000Y-109982000D02*
X152000000Y-110040000D01*
X145040000Y-118620000D02*
X145034000Y-118618000D01*
X145034000Y-118618000D02*
X145034000Y-121158000D01*
X145034000Y-121158000D02*
X145040000Y-121160000D01*
X146730000Y-98850000D02*
X148970000Y-101090000D01*
X136920000Y-98850000D02*
X146730000Y-98850000D01*
X131270000Y-104500000D02*
X136920000Y-98850000D01*
X137000000Y-104000000D02*
X137033000Y-104013000D01*
X137033000Y-104013000D02*
X138176000Y-105156000D01*
X138176000Y-105156000D02*
X138176000Y-105410000D01*
X138176000Y-105410000D02*
X138811000Y-106045000D01*
X138811000Y-106045000D02*
X138811000Y-112649000D01*
X137000000Y-101460000D02*
X137033000Y-101473000D01*
X137033000Y-101473000D02*
X136779000Y-101473000D01*
X136779000Y-101473000D02*
X135255000Y-102997000D01*
X135255000Y-102997000D02*
X135255000Y-108331000D01*
X137160000Y-106680000D02*
X136398000Y-107442000D01*
X136398000Y-107442000D02*
X136398000Y-109474000D01*
X135620000Y-120620000D02*
X135636000Y-120650000D01*
X135636000Y-120650000D02*
X137541000Y-118745000D01*
X137541000Y-118745000D02*
X137541000Y-112776000D01*
X142500000Y-111000000D02*
X142494000Y-110998000D01*
X142494000Y-110998000D02*
X142113000Y-110617000D01*
X142113000Y-110617000D02*
X142113000Y-104013000D01*
X142113000Y-104013000D02*
X142080000Y-104000000D01*
X142080000Y-101460000D02*
X142113000Y-101473000D01*
X142113000Y-101473000D02*
X143256000Y-100330000D01*
X143256000Y-100330000D02*
X143256000Y-100076000D01*
X143256000Y-100076000D02*
X146050000Y-100076000D01*
X146050000Y-100076000D02*
X147320000Y-101346000D01*
X147320000Y-101346000D02*
X147320000Y-104140000D01*
X140970000Y-108331000D02*
X141097000Y-108458000D01*
X141097000Y-108458000D02*
X141097000Y-120015000D01*
X141097000Y-120015000D02*
X141351000Y-120015000D01*
X141351000Y-120015000D02*
X142494000Y-121158000D01*
X142494000Y-121158000D02*
X142500000Y-121160000D01*
X138938000Y-116967000D02*
X139954000Y-115951000D01*
X139954000Y-115951000D02*
X139954000Y-108077000D01*
X139954000Y-108077000D02*
X140081000Y-107950000D01*
X140081000Y-107950000D02*
X140081000Y-107823000D01*
X140081000Y-107823000D02*
X140208000Y-107696000D01*
X140208000Y-107696000D02*
X140208000Y-107569000D01*
X140208000Y-107569000D02*
X140716000Y-107061000D01*
X136271000Y-123952000D02*
X131064000Y-118745000D01*
X131064000Y-118745000D02*
X131064000Y-107950000D01*
M02*
