M48
;DRILL file {KiCad 4.0.1-stable} date 2/3/2016 5:41:28 PM
;FORMAT={-:-/ absolute / inch / decimal}
FMAT,2
INCH,TZ
T1C0.025
T2C0.031
T3C0.039
T4C0.040
%
G90
G05
M72
T1
X5.155Y-3.98
X5.16Y-4.25
X5.1681Y-4.1142
X5.18Y-3.895
X5.325Y-4.265
X5.365Y-4.88
X5.37Y-4.31
X5.4Y-4.2
X5.415Y-4.44
X5.465Y-4.435
X5.47Y-4.605
X5.54Y-4.215
X5.55Y-4.265
X5.8Y-4.1
X5.865Y-3.9799
T2
X5.0394Y-4.4488
X5.0394Y-4.5488
X5.0394Y-4.6488
X5.0394Y-4.7488
X5.3394Y-4.4488
X5.3394Y-4.5488
X5.3394Y-4.6488
X5.3394Y-4.7488
T3
X5.9449Y-3.9567
X5.9449Y-4.0567
T4
X5.3937Y-3.9945
X5.3937Y-4.0945
X5.4937Y-3.9945
X5.4937Y-4.0945
X5.5937Y-3.9945
X5.5937Y-4.0945
X5.6102Y-4.3701
X5.6102Y-4.4701
X5.6102Y-4.5701
X5.6102Y-4.6701
X5.6102Y-4.7701
X5.6937Y-3.9945
X5.6937Y-4.0945
X5.7102Y-4.3701
X5.7102Y-4.4701
X5.7102Y-4.5701
X5.7102Y-4.6701
X5.7102Y-4.7701
X5.9843Y-4.2323
X5.9843Y-4.3323
X5.9843Y-4.4685
X5.9843Y-4.5685
X5.9843Y-4.6685
X5.9843Y-4.7685
T0
M30
