G04 #@! TF.FileFunction,Copper,L2,Bot,Signal*
%FSLAX46Y46*%
G04 Gerber Fmt 4.6, Leading zero omitted, Abs format (unit mm)*
G04 Created by KiCad (PCBNEW 4.0.1-stable) date 2/3/2016 5:41:03 PM*
%MOMM*%
G01*
G04 APERTURE LIST*
%ADD10C,0.100000*%
%ADD11R,2.000000X1.900000*%
%ADD12C,1.900000*%
%ADD13O,1.600000X1.600000*%
%ADD14R,1.727200X1.727200*%
%ADD15O,1.727200X1.727200*%
%ADD16R,2.032000X1.727200*%
%ADD17O,2.032000X1.727200*%
%ADD18R,2.032000X2.032000*%
%ADD19O,2.032000X2.032000*%
%ADD20R,2.000000X1.700000*%
%ADD21C,0.889000*%
%ADD22C,0.400000*%
G04 APERTURE END LIST*
D10*
D11*
X151000000Y-100500000D03*
D12*
X151000000Y-103040000D03*
D13*
X128000000Y-113000000D03*
X128000000Y-115540000D03*
X128000000Y-118080000D03*
X128000000Y-120620000D03*
X135620000Y-120620000D03*
X135620000Y-118080000D03*
X135620000Y-115540000D03*
X135620000Y-113000000D03*
D14*
X142500000Y-111000000D03*
D15*
X145040000Y-111000000D03*
X142500000Y-113540000D03*
X145040000Y-113540000D03*
X142500000Y-116080000D03*
X145040000Y-116080000D03*
X142500000Y-118620000D03*
X145040000Y-118620000D03*
X142500000Y-121160000D03*
X145040000Y-121160000D03*
D14*
X137000000Y-104000000D03*
D15*
X137000000Y-101460000D03*
X139540000Y-104000000D03*
X139540000Y-101460000D03*
X142080000Y-104000000D03*
X142080000Y-101460000D03*
X144620000Y-104000000D03*
X144620000Y-101460000D03*
D16*
X152000000Y-113500000D03*
D17*
X152000000Y-116040000D03*
X152000000Y-118580000D03*
X152000000Y-121120000D03*
D18*
X152000000Y-107500000D03*
D19*
X152000000Y-110040000D03*
D20*
X133000000Y-101000000D03*
X129000000Y-101000000D03*
X129000000Y-104500000D03*
X133000000Y-104500000D03*
D21*
X130937000Y-101092000D03*
X131572000Y-98933000D03*
X148970000Y-101090000D03*
X131270000Y-104500000D03*
X138811000Y-112649000D03*
X135255000Y-108331000D03*
X137160000Y-106680000D03*
X136398000Y-109474000D03*
X137541000Y-112776000D03*
X147320000Y-104140000D03*
X140970000Y-108331000D03*
X138938000Y-116967000D03*
X140716000Y-107061000D03*
X136271000Y-123952000D03*
X131064000Y-107950000D03*
D22*
X130937000Y-101092000D02*
X130810000Y-100965000D01*
X130810000Y-100965000D02*
X129032000Y-100965000D01*
X129032000Y-100965000D02*
X129000000Y-101000000D01*
X145040000Y-111000000D02*
X145034000Y-110998000D01*
X145034000Y-110998000D02*
X146177000Y-112141000D01*
X146177000Y-112141000D02*
X146431000Y-112141000D01*
X146431000Y-112141000D02*
X147828000Y-113538000D01*
X147828000Y-113538000D02*
X152019000Y-113538000D01*
X152019000Y-113538000D02*
X152000000Y-113500000D01*
X135620000Y-113000000D02*
X135636000Y-113030000D01*
X135636000Y-113030000D02*
X139065000Y-109601000D01*
X139065000Y-109601000D02*
X143891000Y-109601000D01*
X143891000Y-109601000D02*
X143891000Y-109855000D01*
X143891000Y-109855000D02*
X145034000Y-110998000D01*
X145034000Y-110998000D02*
X145040000Y-111000000D01*
X139540000Y-101460000D02*
X139573000Y-101473000D01*
X139573000Y-101473000D02*
X139573000Y-101219000D01*
X139573000Y-101219000D02*
X138176000Y-99822000D01*
X138176000Y-99822000D02*
X136525000Y-99822000D01*
X136525000Y-99822000D02*
X136398000Y-99695000D01*
X136398000Y-99695000D02*
X136271000Y-99695000D01*
X136271000Y-99695000D02*
X136144000Y-99568000D01*
X136144000Y-99568000D02*
X136017000Y-99568000D01*
X136017000Y-99568000D02*
X135382000Y-98933000D01*
X135382000Y-98933000D02*
X131572000Y-98933000D01*
X152000000Y-116040000D02*
X152019000Y-116078000D01*
X152019000Y-116078000D02*
X150876000Y-117221000D01*
X150876000Y-117221000D02*
X150495000Y-117221000D01*
X150495000Y-117221000D02*
X149098000Y-118618000D01*
X149098000Y-118618000D02*
X145034000Y-118618000D01*
X145034000Y-118618000D02*
X145040000Y-118620000D01*
X151000000Y-100500000D02*
X151003000Y-100457000D01*
X151003000Y-100457000D02*
X150622000Y-100076000D01*
X150622000Y-100076000D02*
X140716000Y-100076000D01*
X140716000Y-100076000D02*
X140716000Y-100330000D01*
X140716000Y-100330000D02*
X139573000Y-101473000D01*
X139573000Y-101473000D02*
X139540000Y-101460000D01*
X133000000Y-104500000D02*
X131270000Y-104500000D01*
X148970000Y-101090000D02*
X150920000Y-103040000D01*
X150920000Y-103040000D02*
X151000000Y-103040000D01*
X151000000Y-103040000D02*
X151003000Y-102997000D01*
X132969000Y-104521000D02*
X133000000Y-104500000D01*
X138811000Y-112649000D02*
X142240000Y-116078000D01*
X142240000Y-116078000D02*
X142494000Y-116078000D01*
X142494000Y-116078000D02*
X142500000Y-116080000D01*
X133000000Y-101000000D02*
X132969000Y-100965000D01*
X132969000Y-100965000D02*
X132969000Y-101600000D01*
X132969000Y-101600000D02*
X134493000Y-103124000D01*
X134493000Y-103124000D02*
X134493000Y-106553000D01*
X134493000Y-106553000D02*
X128016000Y-113030000D01*
X128016000Y-113030000D02*
X128000000Y-113000000D01*
X137000000Y-104000000D02*
X137033000Y-104013000D01*
X137033000Y-104013000D02*
X135890000Y-102870000D01*
X135890000Y-102870000D02*
X135636000Y-102870000D01*
X135636000Y-102870000D02*
X133731000Y-100965000D01*
X133731000Y-100965000D02*
X132969000Y-100965000D01*
X132969000Y-100965000D02*
X133000000Y-101000000D01*
X135255000Y-108331000D02*
X128016000Y-115570000D01*
X128016000Y-115570000D02*
X128000000Y-115540000D01*
X139540000Y-104000000D02*
X139573000Y-104013000D01*
X139573000Y-104013000D02*
X139573000Y-104267000D01*
X139573000Y-104267000D02*
X137160000Y-106680000D01*
X136398000Y-109474000D02*
X134239000Y-111633000D01*
X134239000Y-111633000D02*
X134239000Y-111887000D01*
X134239000Y-111887000D02*
X128016000Y-118110000D01*
X128016000Y-118110000D02*
X128000000Y-118080000D01*
X128000000Y-118080000D02*
X128016000Y-118110000D01*
X128016000Y-118110000D02*
X129159000Y-119253000D01*
X129159000Y-119253000D02*
X129286000Y-119253000D01*
X129286000Y-119253000D02*
X132588000Y-122555000D01*
X132588000Y-122555000D02*
X146431000Y-122555000D01*
X146431000Y-122555000D02*
X150368000Y-118618000D01*
X150368000Y-118618000D02*
X152019000Y-118618000D01*
X152019000Y-118618000D02*
X152000000Y-118580000D01*
X137541000Y-112776000D02*
X137541000Y-112395000D01*
X137541000Y-112395000D02*
X138938000Y-110998000D01*
X138938000Y-110998000D02*
X142494000Y-110998000D01*
X142494000Y-110998000D02*
X142500000Y-111000000D01*
X147320000Y-104140000D02*
X143129000Y-108331000D01*
X143129000Y-108331000D02*
X140970000Y-108331000D01*
X142500000Y-121160000D02*
X142494000Y-121158000D01*
X142494000Y-121158000D02*
X141351000Y-120015000D01*
X141351000Y-120015000D02*
X141097000Y-120015000D01*
X141097000Y-120015000D02*
X139192000Y-118110000D01*
X139192000Y-118110000D02*
X135636000Y-118110000D01*
X135636000Y-118110000D02*
X135620000Y-118080000D01*
X142500000Y-118620000D02*
X142494000Y-118618000D01*
X142494000Y-118618000D02*
X142113000Y-118237000D01*
X142113000Y-118237000D02*
X140970000Y-118237000D01*
X140970000Y-118237000D02*
X140716000Y-117983000D01*
X140716000Y-117983000D02*
X140462000Y-117983000D01*
X140462000Y-117983000D02*
X139446000Y-116967000D01*
X139446000Y-116967000D02*
X138938000Y-116967000D01*
X140716000Y-107061000D02*
X142367000Y-105410000D01*
X142367000Y-105410000D02*
X143510000Y-105410000D01*
X143510000Y-105410000D02*
X143510000Y-105156000D01*
X143510000Y-105156000D02*
X144653000Y-104013000D01*
X144653000Y-104013000D02*
X144620000Y-104000000D01*
X142500000Y-118620000D02*
X142494000Y-118618000D01*
X142494000Y-118618000D02*
X141351000Y-117475000D01*
X141351000Y-117475000D02*
X141097000Y-117475000D01*
X141097000Y-117475000D02*
X139192000Y-115570000D01*
X139192000Y-115570000D02*
X135636000Y-115570000D01*
X135636000Y-115570000D02*
X135620000Y-115540000D01*
X152000000Y-121120000D02*
X152019000Y-121158000D01*
X152019000Y-121158000D02*
X149225000Y-123952000D01*
X149225000Y-123952000D02*
X136271000Y-123952000D01*
X131064000Y-107950000D02*
X131064000Y-106553000D01*
X131064000Y-106553000D02*
X129032000Y-104521000D01*
X129032000Y-104521000D02*
X129000000Y-104500000D01*
M02*
